<svg xmlns="http://www.w3.org/2000/svg" viewBox="0 0 32 32" width="32" height="32">
  <defs>
    <linearGradient id="grad" x1="0%" y1="0%" x2="100%" y2="100%">
      <stop offset="0%" style="stop-color:#e11d48"/>
      <stop offset="100%" style="stop-color:#be123c"/>
    </linearGradient>
  </defs>
  <rect width="32" height="32" rx="6" fill="url(#grad)"/>
  <g transform="translate(6, 6)" fill="white">
    <path d="M10 0 C13 0 16 3 16 8 C16 12 13 15 10 17 L7 13 C9 11 10 9 10 8 C10 6 9 4 7 4 L5 4 C3 4 2 6 2 8 C2 9 3 11 5 13 L2 17 C-1 15 -2 12 -2 8 C-2 3 1 0 5 0 Z"/>
    <path d="M13 5 L19 2 L21 5 L15 8 Z"/>
    <path d="M13 11 L19 14 L21 11 L15 8 Z"/>
  </g>
</svg>