<svg xmlns="http://www.w3.org/2000/svg" viewBox="0 0 200 50" width="200" height="50">
  <defs>
    <linearGradient id="clawGrad" x1="0%" y1="0%" x2="100%" y2="100%">
      <stop offset="0%" style="stop-color:#e11d48"/>
      <stop offset="100%" style="stop-color:#be123c"/>
    </linearGradient>
  </defs>
  <g transform="translate(5, 5)">
    <path d="M20 0 C25 0 30 5 30 12 C30 18 25 22 20 25 L15 20 C18 18 20 15 20 12 C20 9 18 6 15 6 L10 6 C7 6 5 9 5 12 C5 15 7 18 10 20 L5 25 C0 22 -2 18 -2 12 C-2 5 3 0 10 0 Z" fill="url(#clawGrad)"/>
    <path d="M25 8 L35 3 L38 8 L28 13 Z" fill="url(#clawGrad)"/>
    <path d="M25 16 L35 21 L38 16 L28 11 Z" fill="url(#clawGrad)"/>
  </g>
  <text x="50" y="35" font-family="Inter, -apple-system, sans-serif" font-size="28" font-weight="700" fill="#1e293b">Open<tspan fill="#e11d48">Claw</tspan></text>
</svg>